<svg aria-hidden="true" style="position: absolute; width: 0; height: 0; overflow: hidden;" version="1.1" xmlns="http://www.w3.org/2000/svg" xmlns:xlink="http://www.w3.org/1999/xlink">
    <defs>
        <symbol id="icon-eye" viewBox="0 0 32 32">
            <path stroke-linejoin="round" stroke-linecap="round" stroke-miterlimit="4" stroke-width="2" d="M16 7c-10 0-14 9-14 9s4 9 14 9c10 0 14-9 14-9s-4-9-14-9z"></path>
            <path stroke-linejoin="round" stroke-linecap="round" stroke-miterlimit="4" stroke-width="2" d="M16 21c2.761 0 5-2.239 5-5s-2.239-5-5-5c-2.761 0-5 2.239-5 5s2.239 5 5 5z"></path>
        </symbol>

        
        <symbol id="icon-moon" viewBox="0 0 32 32">
            <path d="M16.182 0.798c0.311 0.536 0.285 1.204-0.067 1.714-1.067 1.548-1.692 3.423-1.692 5.449 0 5.31 4.305 9.616 9.615 9.616 2.026 0 3.901-0.625 5.449-1.692 0.51-0.352 1.178-0.377 1.714-0.066s0.845 0.903 0.793 1.521c-0.694 8.213-7.577 14.661-15.968 14.661-8.851 0-16.026-7.175-16.026-16.026 0-8.391 6.448-15.275 14.661-15.968 0.618-0.052 1.21 0.256 1.521 0.793zM11.898 3.832c-5.055 1.718-8.693 6.506-8.693 12.142 0 7.081 5.74 12.821 12.821 12.821 5.636 0 10.424-3.638 12.142-8.693-1.296 0.441-2.686 0.68-4.129 0.68-7.081 0-12.821-5.74-12.821-12.821 0-1.444 0.239-2.833 0.68-4.129z"></path>
        </symbol>

        <symbol id="icon-sun" viewBox="0 0 32 32">
            <path d="M17.684 1.684c0-0.93-0.754-1.684-1.684-1.684s-1.684 0.754-1.684 1.684v0.845c0 0.93 0.754 1.684 1.684 1.684s1.684-0.754 1.684-1.684v-0.845zM27.314 7.068c0.657-0.658 0.657-1.724 0-2.381s-1.724-0.658-2.381 0l-0.598 0.598c-0.658 0.658-0.658 1.724 0 2.381s1.724 0.658 2.381 0l0.598-0.598zM7.067 4.686c-0.658-0.658-1.724-0.658-2.381 0s-0.658 1.724 0 2.381l0.598 0.598c0.658 0.658 1.724 0.658 2.381 0s0.658-1.724 0-2.381l-0.598-0.598zM1.684 14.316c-0.93 0-1.684 0.754-1.684 1.684s0.754 1.684 1.684 1.684h0.845c0.93 0 1.684-0.754 1.684-1.684s-0.754-1.684-1.684-1.684h-0.845zM29.471 14.316c-0.93 0-1.684 0.754-1.684 1.684s0.754 1.684 1.684 1.684h0.846c0.93 0 1.684-0.754 1.684-1.684s-0.754-1.684-1.684-1.684h-0.846zM7.665 26.716c0.658-0.658 0.658-1.724 0-2.381s-1.724-0.658-2.381 0l-0.598 0.598c-0.658 0.658-0.658 1.724 0 2.381s1.724 0.657 2.381 0l0.598-0.598zM26.716 24.335c-0.658-0.658-1.724-0.658-2.381 0s-0.658 1.724 0 2.381l0.598 0.598c0.658 0.658 1.724 0.658 2.382 0s0.657-1.724 0-2.381l-0.598-0.598zM17.684 29.471c0-0.93-0.754-1.684-1.684-1.684s-1.684 0.754-1.684 1.684v0.846c0 0.93 0.754 1.684 1.684 1.684s1.684-0.754 1.684-1.684v-0.846zM9.265 16c0-3.72 3.016-6.735 6.735-6.735s6.735 3.016 6.735 6.735c0 3.72-3.016 6.735-6.735 6.735s-6.735-3.016-6.735-6.735zM16 5.897c-5.58 0-10.103 4.523-10.103 10.103s4.523 10.103 10.103 10.103c5.58 0 10.103-4.523 10.103-10.103s-4.523-10.103-10.103-10.103z"></path>
        </symbol>
    </defs>
</svg>
